<?xml version="1.0" encoding="UTF-8" standalone="no"?>
<svg
   width="16"
   height="16"
   fill="currentColor"
   class="bi bi-file-earmark-pdf-fill"
   viewBox="0 0 16 16"
   version="1.1"
   id="svg54442"
   sodipodi:docname="file-bib.svg"
   inkscape:version="1.2.2 (1:1.2.2+202212051550+b0a8486541)"
   xml:space="preserve"
   xmlns:inkscape="http://www.inkscape.org/namespaces/inkscape"
   xmlns:sodipodi="http://sodipodi.sourceforge.net/DTD/sodipodi-0.dtd"
   xmlns="http://www.w3.org/2000/svg"
   xmlns:svg="http://www.w3.org/2000/svg"><defs
     id="defs54446" /><sodipodi:namedview
     id="namedview54444"
     pagecolor="#ffffff"
     bordercolor="#666666"
     borderopacity="1.0"
     inkscape:showpageshadow="2"
     inkscape:pageopacity="0.0"
     inkscape:pagecheckerboard="0"
     inkscape:deskcolor="#d1d1d1"
     showgrid="false"
     inkscape:zoom="45.387417"
     inkscape:cx="7.4359817"
     inkscape:cy="14.166922"
     inkscape:window-width="3768"
     inkscape:window-height="2089"
     inkscape:window-x="1512"
     inkscape:window-y="34"
     inkscape:window-maximized="1"
     inkscape:current-layer="svg54442" /><path
     id="path54440"
     d="M 4 0 C 2.8954316 0 2 0.8954316 2 2 L 2 14 C 2 15.104568 2.8954316 16 4 16 L 12 16 C 13.104568 16 14 15.104568 14 14 L 14 4.7070312 C 13.999943 4.4418367 13.89458 4.1874925 13.707031 4 L 10 0.29296875 C 9.8125075 0.10541957 9.5581633 5.6637348e-05 9.2929688 0 L 4 0 z M 9.5 1.5 L 12.5 4.5 L 10.5 4.5 C 9.9477159 4.5 9.5 4.0522841 9.5 3.5 L 9.5 1.5 z M 3.0898438 7.8496094 L 5.3476562 7.8496094 C 5.5695758 7.8496094 5.7717391 7.8836318 5.9550781 7.9511719 C 6.138417 8.0187118 6.2955216 8.1081234 6.4257812 8.2207031 C 6.5560408 8.333282 6.6581088 8.4623463 6.7304688 8.6054688 C 6.8028289 8.7485889 6.8378906 8.8930752 6.8378906 9.0410156 C 6.8378906 9.179296 6.8101862 9.3120801 6.7539062 9.4375 C 6.6976262 9.5629395 6.6188975 9.6760433 6.5175781 9.7773438 C 6.4162587 9.8786442 6.2958163 9.9643963 6.1542969 10.035156 C 6.0127775 10.105915 5.8560066 10.157293 5.6855469 10.189453 C 5.8785072 10.202333 6.0570358 10.24336 6.2226562 10.3125 C 6.3882767 10.38164 6.5340303 10.473359 6.65625 10.585938 C 6.7784696 10.698497 6.8745526 10.825988 6.9453125 10.970703 C 7.0160721 11.115423 7.0507812 11.268181 7.0507812 11.425781 C 7.0507812 11.596241 7.0160724 11.760721 6.9453125 11.919922 C 6.8745527 12.079121 6.772485 12.219578 6.640625 12.341797 C 6.5087459 12.464017 6.3516223 12.562759 6.1699219 12.636719 C 5.9882215 12.710678 5.7856672 12.746094 5.5605469 12.746094 L 3.0898438 12.746094 L 3.0898438 12.578125 C 3.3439044 12.578125 3.5077182 12.564116 3.5800781 12.535156 C 3.6524383 12.506197 3.6875 12.406788 3.6875 12.236328 L 3.6875 8.3613281 C 3.6875 8.1908497 3.6524381 8.09144 3.5800781 8.0625 C 3.507718 8.03356 3.3439235 8.0195312 3.0898438 8.0195312 L 3.0898438 7.8496094 z M 4.4121094 7.9746094 C 4.2609494 7.9746094 4.1725575 7.9939179 4.1484375 8.0292969 C 4.1243165 8.0646771 4.1132812 8.1467508 4.1132812 8.2753906 L 4.1132812 10.107422 L 5.1347656 10.107422 C 5.3245251 10.107422 5.4946191 10.076039 5.6425781 10.011719 C 5.7905182 9.9473991 5.9143056 9.8627041 6.015625 9.7597656 C 6.1169443 9.6568264 6.1949869 9.5397294 6.2480469 9.40625 C 6.3011068 9.2727703 6.328125 9.1363467 6.328125 8.9980469 C 6.328125 8.8822668 6.3051387 8.7628444 6.2617188 8.640625 C 6.218299 8.5184048 6.1535983 8.4086468 6.0683594 8.3105469 C 5.98312 8.2124476 5.8770208 8.1330324 5.75 8.0703125 C 5.6229792 8.0075956 5.4751471 7.9746094 5.3046875 7.9746094 L 4.4121094 7.9746094 z M 7.3496094 9.0410156 C 7.4750488 9.0635176 7.619164 9.0768381 7.7832031 9.0800781 C 7.9472423 9.0832481 8.0726301 9.0859375 8.15625 9.0859375 C 8.2430706 9.0859375 8.3668775 9.0832481 8.5292969 9.0800781 C 8.6917169 9.0768791 8.838157 9.0635176 8.9667969 9.0410156 L 8.9667969 9.2109375 C 8.7127169 9.2109375 8.5559478 9.2312864 8.4980469 9.2714844 C 8.4401469 9.3116843 8.4121094 9.4047939 8.4121094 9.5527344 L 8.4121094 12.191406 C 8.4121094 12.342585 8.4401659 12.437983 8.4980469 12.476562 C 8.5559275 12.515142 8.7127169 12.535156 8.9667969 12.535156 L 8.9667969 12.703125 L 7.3496094 12.703125 L 7.3496094 12.535156 C 7.5843891 12.535156 7.7281901 12.515162 7.78125 12.476562 C 7.8343099 12.437963 7.8613281 12.342566 7.8613281 12.191406 L 7.8613281 9.5527344 C 7.8613281 9.4047939 7.840295 9.3116823 7.796875 9.2714844 C 7.7534551 9.2312794 7.603689 9.2109375 7.3496094 9.2109375 L 7.3496094 9.0410156 z M 9.390625 9.0410156 L 11.392578 9.0410156 C 11.585558 9.0410156 11.760369 9.0673315 11.917969 9.1171875 C 12.075569 9.1670468 12.211306 9.2324522 12.322266 9.3144531 C 12.433226 9.3964726 12.518958 9.4918695 12.580078 9.5996094 C 12.641198 9.7073499 12.671875 9.8178137 12.671875 9.9335938 C 12.671875 10.149073 12.586475 10.336208 12.416016 10.492188 C 12.245555 10.648167 12.033378 10.747243 11.779297 10.789062 C 11.927237 10.811582 12.065053 10.84997 12.195312 10.90625 C 12.325571 10.962531 12.438323 11.031261 12.533203 11.113281 C 12.628083 11.195301 12.703486 11.29001 12.759766 11.394531 C 12.816046 11.499051 12.845703 11.608828 12.845703 11.724609 C 12.845703 11.853268 12.815712 11.976369 12.757812 12.09375 C 12.699913 12.21113 12.617172 12.31459 12.507812 12.40625 C 12.398454 12.49789 12.265003 12.569967 12.107422 12.623047 C 11.949841 12.676127 11.769026 12.703125 11.566406 12.703125 L 9.390625 12.703125 L 9.390625 12.535156 C 9.6254238 12.535156 9.7691837 12.515162 9.8222656 12.476562 C 9.8753486 12.437963 9.9023438 12.342566 9.9023438 12.191406 L 9.9023438 9.5527344 C 9.9023438 9.4047939 9.8753476 9.3116823 9.8222656 9.2714844 C 9.7691864 9.2312794 9.6254049 9.2109375 9.390625 9.2109375 L 9.390625 9.0410156 z M 10.625 9.2539062 C 10.499561 9.2539062 10.420166 9.2672478 10.384766 9.2929688 C 10.349366 9.318689 10.332031 9.4047939 10.332031 9.5527344 L 10.332031 10.744141 L 11.136719 10.744141 C 11.522677 10.744141 11.775884 10.64841 11.896484 10.457031 C 12.017084 10.265652 12.078125 10.107156 12.078125 9.9785156 C 12.078125 9.8948958 12.030054 9.7521531 11.933594 9.5527344 C 11.837133 9.3533153 11.628947 9.2539062 11.310547 9.2539062 L 10.625 9.2539062 z M 4.1132812 10.232422 L 4.1132812 12.236328 C 4.1132813 12.364987 4.1243175 12.447022 4.1484375 12.482422 C 4.1725574 12.517822 4.2609494 12.535156 4.4121094 12.535156 L 4.4121094 12.578125 L 5.3046875 12.578125 C 5.5073072 12.578125 5.6824717 12.54111 5.8320312 12.46875 C 5.9815907 12.39639 6.1069782 12.303985 6.2050781 12.191406 C 6.3031777 12.078827 6.3755882 11.955411 6.4238281 11.820312 C 6.4720681 11.685214 6.4960938 11.554422 6.4960938 11.425781 C 6.4960937 11.287501 6.4750606 11.147359 6.4316406 11.005859 C 6.3882208 10.864359 6.323168 10.735274 6.2363281 10.621094 C 6.1494883 10.506896 6.0377572 10.414157 5.9042969 10.341797 C 5.7708365 10.269437 5.615666 10.232422 5.4355469 10.232422 L 4.1132812 10.232422 z M 10.332031 10.875 L 10.332031 12.236328 C 10.332031 12.364987 10.349386 12.447022 10.384766 12.482422 C 10.420146 12.517822 10.49956 12.535156 10.625 12.535156 L 11.310547 12.535156 C 11.628947 12.535156 11.857813 12.442732 11.996094 12.257812 C 12.134374 12.072892 12.203125 11.895069 12.203125 11.724609 C 12.203125 11.576651 12.142104 11.398512 12.021484 11.189453 C 11.900865 10.980393 11.691698 10.875 11.392578 10.875 L 10.332031 10.875 z " /></svg>
