<?xml version="1.0" encoding="UTF-8" standalone="no"?>
<!-- Created with Inkscape (http://www.inkscape.org/) -->

<svg
   version="1.1"
   id="svg64112"
   width="163.84"
   height="163.84"
   viewBox="0 0 163.84 163.84"
   xmlns="http://www.w3.org/2000/svg"
   xmlns:svg="http://www.w3.org/2000/svg">
  <defs
     id="defs64116" />
  <g
     id="g64118">
    <path
       style="fill:#8c1b13;stroke-width:0.32;fill-opacity:1"
       d="M 0,81.92 V 0 H 81.919995 163.84 v 81.92 81.92 H 81.919995 0 Z m 19.153693,60.38596 c 1.630727,-1.35225 1.471492,-4.60349 -0.269561,-5.50382 -1.40124,-0.72461 -3.331803,-0.61824 -4.317091,0.23786 -1.675534,1.45585 -1.352143,4.51902 0.580814,5.50148 1.105996,0.56215 3.191797,0.43952 4.005838,-0.23552 z m 47.246302,-0.44115 1.6,-0.60267 0.094,-2.31107 c 0.0517,-1.27109 0.0467,-2.31107 -0.0111,-2.31107 -0.0578,0 -0.96411,0.30417 -2.01401,0.67593 -1.05701,0.37428 -3.05138,0.74188 -4.46891,0.82371 -2.11556,0.12213 -2.75266,0.0408 -3.66971,-0.46839 -1.48673,-0.82553 -2.26021,-1.93112 -2.47586,-3.53896 L 55.275715,132.8 h 7.12814 7.12814 l -0.21384,-2.64 c -0.39682,-4.89907 -1.67971,-7.18618 -4.92471,-8.77966 -1.622,-0.7965 -2.1841,-0.89993 -4.87347,-0.89675 -3.64475,0.004 -5.72838,0.77544 -7.55337,2.79549 -1.87783,2.07853 -2.47543,3.78123 -2.62509,7.47946 -0.26019,6.42957 2.02278,10.05216 7.27586,11.54526 2.08252,0.59193 7.7169,0.33909 9.7826,-0.43899 z m -10.92261,-13.89174 c 0.51682,-2.5841 2.86337,-3.93589 5.40507,-3.11374 1.45955,0.47211 2.37125,1.51571 2.67385,3.06067 l 0.20369,1.04 h -4.24 -4.24 z m 29.72261,14.1492 c 0.84536,-0.33279 0.88,-0.43628 0.88,-2.62859 0,-2.04544 -0.0581,-2.25893 -0.56,-2.05824 -0.308,0.12315 -1.352,0.2991 -2.32,0.391 -1.45054,0.13772 -1.90065,0.0532 -2.56,-0.48088 -0.79199,-0.64148 -0.80105,-0.70587 -0.90591,-6.43676 l -0.10592,-5.7888 h 3.22592 3.22591 v -2.24 -2.24 h -3.2 -3.2 v -2.4 -2.4 h -1.86998 -1.86999 l -0.77001,2.29089 c -0.7099,2.11204 -0.90117,2.37512 -2.45002,3.36983 -1.56328,1.00399 -1.68,1.16719 -1.68,2.34911 V 125.12 h 1.44 1.44 l 0.007,6.48 c 0.006,5.60045 0.0868,6.65374 0.59481,7.76 1.19059,2.59273 3.03698,3.43824 7.07817,3.24127 1.496,-0.0729 3.116,-0.28847 3.6,-0.479 z M 30.781515,135.76 c 0.1256,-5.91394 0.21598,-6.80739 0.82654,-8.17081 0.51544,-1.15101 0.96412,-1.64721 1.80845,-2 1.80127,-0.75261 3.22324,-0.60328 4.41844,0.46403 l 1.04505,0.93321 0.10094,7.70679 0.10093,7.70678 h 3.01907 3.01906 l -0.008,-7.6 c -0.008,-8.12617 -0.21588,-9.79887 -1.44825,-11.67368 -1.27146,-1.93429 -2.97855,-2.64131 -6.38392,-2.64403 -2.57167,-0.002 -3.04115,0.0924 -4.38525,0.88255 -0.82788,0.48667 -1.72457,1.19798 -1.99264,1.5807 -0.57628,0.82269 -0.59386,0.80754 -1.09729,-0.94554 l -0.39054,-1.36 H 27.186955 24.9598 v 10.88 10.88 h 2.840245 2.84024 z m 25.29848,-41.830461 1.52,-0.549699 v -2.36992 c 0,-1.303456 -0.0765,-2.36992 -0.17009,-2.36992 -0.0935,0 -1.06555,0.308131 -2.16,0.684733 -1.32374,0.455504 -2.84692,0.696541 -4.54991,0.72 -3.08145,0.04245 -4.32673,-0.555539 -5.28679,-2.538775 -1.2095,-2.498489 -1.51373,-2.385958 6.4504,-2.385958 h 7.0836 l -0.15733,-2.96 c -0.35229,-6.627725 -3.63506,-9.84 -10.05595,-9.84 -5.51448,0 -9.01503,3.02175 -10.03862,8.665552 -0.48427,2.670112 -0.15743,5.746048 0.84732,7.974448 1.22539,2.717734 3.08635,4.3724 5.98111,5.318074 1.86999,0.610896 8.48871,0.391952 10.53626,-0.348535 z M 44.913045,80.4 c 0.0859,-0.308 0.24729,-0.877677 0.35867,-1.265946 0.36645,-1.277536 1.98185,-2.334054 3.56873,-2.334054 2.4505,0 3.365,0.763629 4.11966,3.44 l 0.20302,0.72 h -4.20313 c -3.84913,0 -4.18997,-0.04716 -4.04695,-0.56 z M 112.08,93.929539 113.6,93.37984 v -2.36992 c 0,-1.303456 -0.0765,-2.36992 -0.1701,-2.36992 -0.0936,0 -1.06555,0.308131 -2.16,0.684733 -1.32374,0.455504 -2.84692,0.696541 -4.5499,0.72 -3.08146,0.04245 -4.32673,-0.555539 -5.2868,-2.538775 C 100.22371,85.007469 99.919477,85.12 107.8836,85.12 h 7.08361 l -0.15734,-2.96 c -0.35228,-6.627725 -3.63505,-9.84 -10.05595,-9.84 -5.514475,0 -9.015025,3.02175 -10.038615,8.665552 -0.48427,2.670112 -0.15743,5.746048 0.84732,7.974448 1.22539,2.717734 3.08635,4.3724 5.981115,5.318074 1.86998,0.610896 8.4887,0.391952 10.53626,-0.348535 z M 100.91305,80.4 c 0.0859,-0.308 0.24729,-0.877677 0.35866,-1.265946 0.36645,-1.277536 1.98185,-2.334054 3.56873,-2.334054 2.4505,0 3.36501,0.763629 4.11967,3.44 l 0.20302,0.72 H 104.96 c -3.84914,0 -4.18997,-0.04716 -4.04695,-0.56 z M 21.12,89.12 v -5.28 l 1.52,0.01318 1.52,0.01318 3.300785,5.266819 3.30079,5.266821 h 3.52647 3.52646 l -1.0982,-1.52 c -0.60401,-0.836 -2.49439,-3.566336 -4.20083,-6.067411 l -3.10264,-4.547415 1.24011,-0.782848 c 2.82509,-1.783395 4.0838,-4.37392 3.83242,-7.887363 -0.23338,-3.261824 -1.32567,-4.915382 -4.2243,-6.394963 L 28.066885,66.08 21.39344,65.972035 14.72,65.864074 V 80.132035 94.4 h 3.2 3.2 z m 0,-14.24 v -3.84 h 1.930278 c 2.071843,0 3.984007,0.624202 4.666747,1.523395 0.23244,0.306131 0.4272,1.291578 0.4328,2.189879 0.008,1.278694 -0.1527,1.80902 -0.74009,2.442816 -0.77802,0.8395 -3.106898,1.52391 -5.185486,1.52391 H 21.12 Z m 56.639995,9.065981 c 2.2,-5.749018 4.04656,-10.644733 4.10347,-10.87937 0.081,-0.333958 -0.59215,-0.426611 -3.09938,-0.426611 h -3.20284 l -2.42062,7.318419 c -1.33135,4.025133 -2.43207,7.733133 -2.44607,8.24 -0.0153,0.553261 -0.20119,0.111885 -0.46519,-1.104361 -0.24186,-1.114269 -1.40223,-4.822269 -2.57858,-8.24 L 65.511945,72.64 h -3.19021 c -2.41564,0 -3.15524,0.09712 -3.04619,0.4 0.0792,0.22 1.93062,5.113616 4.11424,10.874704 l 3.97021,10.474704 3.2,0.0047 3.2,0.0047 4,-10.452758 z m 12.8,-0.425981 V 72.64 h -3.2 -3.2 V 83.52 94.4 h 3.2 3.2 z m 37.884065,10.32 c 0.092,-0.308 0.97637,-4.086714 1.96537,-8.397139 0.989,-4.310426 1.83074,-7.869696 1.87053,-7.909491 0.0705,-0.07048 3.22059,13.753507 3.60647,15.82663 L 136.08,94.4 h 3.40023 3.40023 l 3.01226,-10.48 c 1.65674,-5.764 3.07604,-10.66 3.15401,-10.88 0.107,-0.301952 -0.60653,-0.4 -2.91093,-0.4 -2.63236,0 -3.07494,0.0771 -3.21441,0.56 -1.27587,4.417594 -2.63169,9.814416 -3.075,12.24 -0.52309,2.862122 -0.56849,2.965104 -0.7758,1.76 -0.31158,-1.811187 -2.0161,-9.495168 -2.69744,-12.16 l -0.57272,-2.24 -3.39529,-0.09057 c -3.02736,-0.08076 -3.41341,-0.02874 -3.56239,0.48 -0.99232,3.388541 -2.62669,10.168413 -3.05549,12.675111 l -0.5379,3.144537 -0.40125,-2.824537 C 124.62742,84.631043 123.82775,80.984 123.07106,78.08 l -1.3758,-5.28 -3.11297,-0.09189 c -2.8627,-0.08451 -3.09924,-0.04591 -2.94217,0.48 0.094,0.31454 1.49441,5.215894 3.11215,10.891894 l 2.94134,10.32 h 3.29163 c 2.85786,0 3.31367,-0.0738 3.45882,-0.56 z M 89.883635,68.967165 c 1.12254,-1.101002 1.07352,-3.218589 -0.0978,-4.226151 -1.24434,-1.070336 -3.74855,-1.047344 -4.84034,0.04444 -1.56764,1.567645 -0.811,4.534 1.29455,5.075136 1.14414,0.294048 2.86252,-0.127302 3.64363,-0.893427 z m -38.42712,-18.895309 -0.14854,-5.928144 0.82601,0.791168 c 1.24708,1.19447 2.98194,1.785901 5.21574,1.778093 3.60331,-0.01261 6.18239,-1.917741 7.62308,-5.631107 1.03344,-2.663706 1.07073,-8.38112 0.0723,-11.087926 -1.36871,-3.710663 -3.44297,-5.370295 -7.01346,-5.611496 -2.44434,-0.165126 -3.99261,0.327122 -5.60194,1.781053 -0.68564,0.619441 -1.29039,1.070061 -1.34388,1.001379 -0.0535,-0.06868 -0.23468,-0.628876 -0.40264,-1.244876 l -0.30538,-1.12 -2.62891,-0.09294 -2.62891,-0.09294 V 40.307059 56 h 3.24254 3.24252 z m 3.07555,-8.461488 c -1.43811,-0.33224 -1.73274,-0.584058 -2.39836,-2.049846 -0.68561,-1.509808 -0.85161,-6.250964 -0.27239,-7.77969 1.16915,-3.085715 5.38011,-3.50334 6.91743,-0.686041 0.82407,1.510195 0.83589,7.319375 0.0179,8.815724 -0.82936,1.517216 -2.37993,2.135264 -4.26462,1.699853 z m -23.01207,4.67464 c 2.51101,-0.670749 4.09275,-1.626624 5.82127,-3.517894 2.71307,-2.968535 3.8943,-7.729584 3.2755,-13.202163 -0.65045,-5.75237 -2.78772,-8.908174 -7.49677,-11.069368 -1.41813,-0.650847 -2.09103,-0.734117 -5.92,-0.732586 -3.76034,0.0015 -4.556361,0.09693 -6.144517,0.736566 -5.290915,2.130952 -7.970719,7.505006 -7.519793,15.080123 0.394683,6.630282 3.263792,10.853319 8.515175,12.533472 2.185411,0.69921 7.157135,0.789437 9.469135,0.17185 z m -5.76,-4.823302 c -0.176,-0.06915 -0.713354,-0.2124 -1.194126,-0.31834 -1.451915,-0.319929 -3.033544,-1.97966 -3.776193,-3.962672 -0.963381,-2.572396 -0.963381,-7.468992 0,-10.04139 1.079841,-2.88337 3.31019,-4.412668 6.442569,-4.417519 2.73746,-0.0042 4.8479,1.333655 6.00882,3.809247 0.76011,1.620872 0.83893,2.15191 0.83893,5.651595 0,3.670157 -0.0483,3.95713 -0.96997,5.759258 -0.73432,1.435856 -1.29749,2.077302 -2.31809,2.640297 -1.22136,0.673741 -4.22116,1.198071 -5.03194,0.879524 z m 60.4,4.467833 1.52,-0.549699 v -2.36992 c 0,-1.303456 -0.0765,-2.36992 -0.17009,-2.36992 -0.0935,0 -1.06555,0.308131 -2.16,0.684733 -1.32374,0.455504 -2.84692,0.696541 -4.54991,0.72 -3.08145,0.04245 -4.32673,-0.555539 -5.28679,-2.538775 -1.2095,-2.498489 -1.51373,-2.385958 6.4504,-2.385958 h 7.0836 l -0.15733,-2.96 c -0.35229,-6.627725 -3.63506,-9.84 -10.05595,-9.84 -5.51448,0 -9.01503,3.02175 -10.03862,8.665552 -0.48427,2.670112 -0.15743,5.746048 0.84732,7.974448 1.22539,2.717734 3.08635,4.3724 5.98111,5.318074 1.86999,0.610896 8.48871,0.391952 10.53626,-0.348535 z M 74.993045,32.4 c 0.0859,-0.308 0.24729,-0.877676 0.35867,-1.265946 0.36645,-1.277536 1.98185,-2.334054 3.56873,-2.334054 2.4505,0 3.365,0.76363 4.11966,3.44 l 0.20302,0.72 h -4.20313 c -3.84913,0 -4.18997,-0.04716 -4.04695,-0.56 z m 23.88695,7.741702 c 0,-3.56606 0.15449,-6.871814 0.35912,-7.684467 0.824535,-3.274522 4.946385,-4.443415 6.821415,-1.934445 0.61442,0.822151 0.66639,1.394639 0.76075,8.379824 L 106.92256,46.4 h 3.0378 3.03781 l -0.0991,-8.56 c -0.0939,-8.113126 -0.13594,-8.628897 -0.80506,-9.879747 -1.38207,-2.583654 -3.3867,-3.635104 -6.9369,-3.638468 -2.5153,-0.0024 -4.09748,0.514566 -5.654855,1.847626 -0.71108,0.60866 -1.33356,1.053539 -1.38329,0.988621 -0.0497,-0.06492 -0.22778,-0.622032 -0.3957,-1.238032 l -0.30531,-1.12 -2.46898,-0.09346 -2.46898,-0.09346 v 10.893462 10.893459 h 3.2 3.2 z"
       id="path64239" />
    <path
       style="fill:#9d9d9d;fill-opacity:1;stroke-width:0.110852"
       d="m 25.043064,131.47365 v -10.83187 l 2.162621,0.0306 2.162621,0.0306 0.403729,1.3451 c 0.222051,0.73981 0.469064,1.36651 0.548918,1.39268 0.07985,0.0262 0.413383,-0.23156 0.741175,-0.57271 0.695093,-0.72342 2.063732,-1.64806 2.982083,-2.01466 0.598597,-0.23895 0.810204,-0.25696 3.012755,-0.25643 2.660719,6.5e-4 3.422559,0.12468 4.590999,0.74746 0.819671,0.43688 1.433609,1.0214 2.010862,1.91453 1.222272,1.89109 1.284392,2.51513 1.399081,14.0548 l 0.04961,4.99169 h -2.96382 -2.963821 l -0.0744,-2.55638 c -0.04092,-1.40601 -0.07452,-3.70303 -0.07466,-5.1045 -1.43e-4,-1.40146 -0.03412,-3.71567 -0.07551,-5.14267 l -0.07526,-2.59455 -0.708992,-0.62044 c -1.539465,-1.34718 -2.91762,-1.54983 -4.811547,-0.70752 -0.792492,0.35246 -1.233004,0.8342 -1.741039,1.90397 -0.593801,1.25038 -0.692287,2.08437 -0.824503,6.98203 -0.06532,2.4197 -0.14765,5.17359 -0.182952,6.11976 l -0.06419,1.7203 H 27.79494 25.043055 Z"
       id="path67853" />
    <path
       style="fill:#9d9d9d;fill-opacity:1;stroke-width:0.110852"
       d="m 15.919295,142.7548 c -1.725317,-0.3635 -2.766268,-2.34283 -2.220128,-4.22149 0.255004,-0.87718 1.100702,-1.74978 1.924546,-1.98577 1.256505,-0.35993 2.877107,-0.0742 3.676745,0.64821 1.559068,1.40853 0.98809,4.86529 -0.896921,5.43005 -0.648019,0.19415 -1.87308,0.25776 -2.484242,0.129 z"
       id="path67855" />
    <path
       style="fill:#9d9d9d;fill-opacity:1;stroke-width:0.110852"
       d="m 57.346,142.4078 c -0.890147,-0.14876 -2.679832,-0.82645 -3.576884,-1.35444 -1.110097,-0.65339 -2.495998,-2.07425 -3.041948,-3.11868 -0.917059,-1.75438 -1.196792,-2.97154 -1.282441,-5.58011 -0.136849,-4.16789 0.39913,-6.33354 2.095957,-8.46882 2.073645,-2.60946 4.424506,-3.47835 8.978422,-3.31847 2.030742,0.0713 2.295755,0.12918 3.72425,0.81338 3.203258,1.53424 4.507265,3.72379 4.96142,8.33068 0.09262,0.93959 0.196958,2.00023 0.23185,2.35698 l 0.06344,0.64864 H 62.38765 55.275232 l 8.58e-4,0.31022 c 0.0016,0.57049 0.228618,1.72214 0.463067,2.34876 0.342563,0.91559 1.267548,1.86184 2.335117,2.38882 l 0.857558,0.42332 1.753312,-0.0152 c 2.122634,-0.0183 3.788463,-0.28901 5.79374,-0.9414 0.766723,-0.24944 1.427673,-0.45353 1.46877,-0.45353 0.09252,0 0.09977,3.68196 0.0082,4.14008 -0.05987,0.29934 -0.164924,0.36924 -1.043461,0.69425 -1.832015,0.67775 -3.708685,0.92526 -6.866587,0.90561 -1.165764,-0.007 -2.380654,-0.0568 -2.699756,-0.11014 z m 6.267219,-14.38811 c -0.243703,-1.11521 -0.574048,-1.74605 -1.219847,-2.32949 -0.885474,-0.79997 -1.994995,-1.15755 -3.322703,-1.07082 -1.97539,0.12902 -3.41064,1.60162 -3.741759,3.83913 l -0.0793,0.53583 h 4.288297 4.288297 z"
       id="path67857" />
    <path
       style="fill:#9d9d9d;fill-opacity:1;stroke-width:0.110852"
       d="m 78.221325,142.37111 c -1.540569,-0.35173 -2.77272,-1.30935 -3.47472,-2.70052 -0.656381,-1.30077 -0.66286,-1.37576 -0.715256,-8.27911 l -0.04816,-6.34537 h -1.470972 -1.470972 l 0.048,-1.04346 c 0.02935,-0.63799 0.111291,-1.14375 0.210867,-1.30153 0.08957,-0.14194 0.686849,-0.62041 1.327278,-1.06325 1.782508,-1.23259 1.95847,-1.50429 2.961475,-4.57283 l 0.377946,-1.15626 h 1.83732 1.837321 v 2.36893 2.36894 h 3.214988 3.214988 v 2.198 2.198 l -3.230402,0.0299 -3.230403,0.0299 0.02201,2.70736 c 0.01211,1.48905 0.06516,3.97647 0.117884,5.52761 0.112303,3.3036 0.178182,3.57569 1.004706,4.14971 0.514972,0.35764 0.539198,0.36241 1.819198,0.3583 0.794543,-0.003 1.664096,-0.0816 2.243835,-0.20407 0.689943,-0.1457 0.98029,-0.16617 1.07098,-0.0755 0.143776,0.14378 0.176829,3.37271 0.03955,3.86328 -0.192711,0.68863 -1.511979,0.98288 -4.708041,1.05009 -1.718836,0.0361 -2.48888,0.008 -2.999423,-0.1082 z"
       id="path67859" />
  </g>
</svg>
